<svg width="48" height="37" viewBox="0 0 48 37" fill="none" xmlns="http://www.w3.org/2000/svg">
<path d="M0 28.0809C0 29.6615 0.386355 31.1191 1.15906 32.4538C1.93177 33.7885 2.98547 34.8421 4.32014 35.6149C5.65482 36.3876 7.09487 36.7739 8.65785 36.7739H27.677C29.24 36.7739 30.6976 36.3876 32.0323 35.6149C33.367 34.8421 34.4382 33.7885 35.2109 32.4538C35.9836 31.1191 36.3876 29.6615 36.3876 28.0809C36.3876 26.9219 36.1417 25.7453 35.65 24.5686C36.9847 22.953 37.652 21.0036 37.652 18.7733C37.652 17.5264 37.4061 16.3323 36.932 15.1908C36.4578 14.0493 35.7905 13.0834 34.9651 12.258C34.1397 11.4326 33.1738 10.7652 32.0323 10.2911C30.8908 9.79935 29.6966 9.57105 28.4497 9.57105C25.8506 9.57105 23.5852 10.5896 21.6358 12.6268C20.2836 11.8541 18.7031 11.4677 16.8942 11.4677C14.418 11.4677 12.2404 12.2404 10.3438 13.7683C8.44711 15.2961 7.2178 17.263 6.69096 19.6514C4.72406 20.108 3.12596 21.109 1.87909 22.6895C0.632217 24.2701 0 26.0614 0 28.0809ZM3.00303 28.0809C3.00303 26.6058 3.49475 25.3413 4.4782 24.2701C5.46165 23.1988 6.69096 22.5842 8.16613 22.4086L9.04421 22.3559C9.25494 22.3559 9.37788 22.2505 9.37788 22.0398L9.50081 21.0914C9.74667 19.1948 10.5721 17.5967 11.977 16.3323C13.3819 15.0503 15.0327 14.418 16.9118 14.418C18.8436 14.418 20.5295 15.0678 21.952 16.3498C23.392 17.6318 24.1823 19.2124 24.3579 21.109L24.4808 22.1276C24.5159 22.3208 24.6389 22.4261 24.8496 22.4261H27.677C29.2224 22.4261 30.5571 22.9881 31.6811 24.112C32.805 25.236 33.367 26.5531 33.367 28.0985C33.367 29.6966 32.805 31.0488 31.6986 32.1728C30.5922 33.2967 29.24 33.8587 27.6946 33.8587H8.65785C7.11243 33.8587 5.79532 33.2967 4.67138 32.1552C3.565 31.0137 3.00303 29.6615 3.00303 28.0809ZM14.7693 6.5329C14.7693 6.95438 14.9098 7.32317 15.1908 7.63928L16.3498 8.76322C16.7889 9.09689 17.1576 9.23738 17.4738 9.20226C17.8426 9.20226 18.1587 9.04421 18.4396 8.74566C18.7206 8.44711 18.8611 8.07832 18.8611 7.65684C18.8611 7.23537 18.7031 6.88413 18.4045 6.62071L17.3684 5.46165C17.0523 5.18066 16.701 5.04017 16.2971 5.04017C15.8757 5.04017 15.5069 5.18066 15.2083 5.47921C14.9098 5.76019 14.7693 6.11142 14.7693 6.5329ZM24.1472 14.3127C25.3589 13.1361 26.7989 12.5565 28.4497 12.5565C30.1883 12.5565 31.6635 13.1536 32.8753 14.3654C34.087 15.5771 34.7017 17.0347 34.7017 18.7733C34.7017 19.8621 34.4031 20.9509 33.806 22.0046C32.1025 20.3187 30.0654 19.4758 27.677 19.4758H27.1151C26.676 17.5616 25.6926 15.8405 24.1472 14.3127ZM27.0097 5.04017C27.0097 5.49677 27.1502 5.848 27.4136 6.12899C27.677 6.40997 28.0283 6.5329 28.4497 6.5329C28.9063 6.5329 29.2576 6.39241 29.5386 6.12899C29.8195 5.848 29.9425 5.49677 29.9425 5.04017V1.44005C29.9425 1.01857 29.802 0.684901 29.521 0.403916C29.24 0.122931 28.8888 0 28.4497 0C28.0283 0 27.6946 0.140492 27.4136 0.403916C27.1326 0.667339 27.0097 1.01857 27.0097 1.44005V5.04017ZM36.7037 9.06177C36.7037 9.51837 36.8266 9.8696 37.09 10.1506C37.4588 10.4316 37.8276 10.5721 38.1788 10.5721C38.4949 10.5721 38.8462 10.4316 39.215 10.1506L41.7263 7.63928C42.0073 7.32317 42.1478 6.95438 42.1478 6.51534C42.1478 6.09386 42.0073 5.74263 41.7263 5.46165C41.4453 5.18066 41.0941 5.04017 40.6901 5.04017C40.2687 5.04017 39.935 5.18066 39.6716 5.46165L37.09 7.97295C36.8266 8.30662 36.7037 8.65785 36.7037 9.06177ZM38.091 29.8547C38.091 30.2761 38.2315 30.6449 38.5301 30.961L39.6716 32.0674C39.935 32.3484 40.2687 32.4889 40.6901 32.4889C41.1116 32.4889 41.4629 32.3484 41.7438 32.0499C42.0248 31.7513 42.1653 31.4001 42.1653 30.961C42.1653 30.5747 42.0248 30.2235 41.7438 29.9425L40.6023 28.801C40.3214 28.52 39.9877 28.3795 39.6013 28.3795C39.1799 28.3795 38.8286 28.52 38.5476 28.801C38.2491 29.082 38.091 29.4332 38.091 29.8547ZM40.6726 18.7733C40.6726 19.1772 40.8306 19.5109 41.1292 19.7919C41.4102 20.0729 41.779 20.2134 42.2004 20.2134H45.783C46.1869 20.2134 46.5206 20.0729 46.8016 19.8094C47.0826 19.546 47.2055 19.1948 47.2055 18.7733C47.2055 18.3518 47.065 18.0006 46.8016 17.7196C46.5381 17.4386 46.1869 17.2806 45.783 17.2806H42.2004C41.779 17.2806 41.4277 17.4211 41.1292 17.7196C40.8131 18.0182 40.6726 18.3694 40.6726 18.7733Z" fill="black"/>
</svg>
